<svg xmlns="http://www.w3.org/2000/svg" viewBox="0 0 1200 404" width="1200" height="404" role="img" aria-label="Claude Code token meter. 7.65 billion cumulative tokens across 311 sessions, 2026-08-23 to 2026-09-24.">
<defs><linearGradient id="tfill" x1="0" y1="0" x2="0" y2="1">
<stop offset="0" stop-color="#56d364" stop-opacity="0.30"/>
<stop offset="1" stop-color="#56d364" stop-opacity="0.02"/></linearGradient></defs>
<style>
.s{font-family:-apple-system,BlinkMacSystemFont,'Segoe UI',Helvetica,Arial,sans-serif}.m{font-family:ui-monospace,SFMono-Regular,'SF Mono',Menlo,Consolas,monospace}
.trace{stroke-dasharray:1110;stroke-dashoffset:0;animation:dr 1.7s cubic-bezier(.3,.7,.3,1)}
@keyframes dr{from{stroke-dashoffset:1110}}
.wash{opacity:1;animation:wa 1.9s ease-out}
@keyframes wa{from{opacity:0}}
@media (prefers-reduced-motion:reduce){*{animation:none!important}}</style>
<text class="s" x="4" y="52" font-size="26" font-weight="600" letter-spacing="-0.5" fill="#e6edf3">Claude Code token counts</text>
<text class="s" x="4" y="78" font-size="14" fill="#9198a1">Read off the local transcripts, subagent and workflow runs included, one count per API response.</text>
<text class="m" x="4" y="122" font-size="21" font-weight="600" fill="#e6edf3">311</text><text class="m" x="4" y="138" font-size="10.5" letter-spacing="0.9" fill="#6e7681">SESSIONS</text>
<rect x="286" y="100" width="1" height="36" fill="#30363d"/>
<text class="m" x="302" y="122" font-size="21" font-weight="600" fill="#e6edf3">54,250</text><text class="m" x="302" y="138" font-size="10.5" letter-spacing="0.9" fill="#6e7681">ASSISTANT TURNS</text>
<rect x="584" y="100" width="1" height="36" fill="#30363d"/>
<text class="m" x="600" y="122" font-size="21" font-weight="600" fill="#e6edf3">69,826</text><text class="m" x="600" y="138" font-size="10.5" letter-spacing="0.9" fill="#6e7681">TOOL CALLS</text>
<rect x="882" y="100" width="1" height="36" fill="#30363d"/>
<text class="m" x="898" y="122" font-size="21" font-weight="600" fill="#e6edf3">96%</text><text class="m" x="898" y="138" font-size="10.5" letter-spacing="0.9" fill="#6e7681">SERVED FROM CACHE</text>
<line x1="4" y1="334.0" x2="1096" y2="334.0" stroke="#21262d" stroke-width="1"/>
<text class="m" x="1106" y="338.0" font-size="11" fill="#6e7681">0</text>
<line x1="4" y1="288.5" x2="1096" y2="288.5" stroke="#21262d" stroke-width="1"/>
<text class="m" x="1106" y="292.5" font-size="11" fill="#6e7681">2.5B</text>
<line x1="4" y1="243.0" x2="1096" y2="243.0" stroke="#21262d" stroke-width="1"/>
<text class="m" x="1106" y="247.0" font-size="11" fill="#6e7681">5B</text>
<line x1="4" y1="197.5" x2="1096" y2="197.5" stroke="#21262d" stroke-width="1"/>
<text class="m" x="1106" y="201.5" font-size="11" fill="#6e7681">7.5B</text>
<line x1="4" y1="152.0" x2="1096" y2="152.0" stroke="#21262d" stroke-width="1"/>
<text class="m" x="1106" y="156.0" font-size="11" fill="#6e7681">10B</text>
<path class="wash" d="M4.0 333.3 L38.1 331.4 L72.2 329.2 L106.4 327.8 L140.5 327.7 L174.6 326.6 L208.8 326.5 L242.9 317.8 L277.0 312.6 L311.1 308.0 L345.2 305.7 L379.4 296.4 L413.5 285.5 L447.6 281.6 L481.8 278.5 L515.9 272.2 L550.0 266.6 L584.1 264.7 L618.2 261.5 L652.4 261.3 L686.5 261.0 L720.6 257.5 L754.8 255.9 L788.9 254.6 L823.0 250.9 L857.1 249.3 L891.2 248.8 L925.4 242.5 L959.5 240.7 L993.6 238.1 L1027.8 220.3 L1061.9 201.2 L1096.0 194.8 L1096.0 334.0 L4 334.0 Z" fill="url(#tfill)"/>
<path class="trace" d="M4.0 333.3 L38.1 331.4 L72.2 329.2 L106.4 327.8 L140.5 327.7 L174.6 326.6 L208.8 326.5 L242.9 317.8 L277.0 312.6 L311.1 308.0 L345.2 305.7 L379.4 296.4 L413.5 285.5 L447.6 281.6 L481.8 278.5 L515.9 272.2 L550.0 266.6 L584.1 264.7 L618.2 261.5 L652.4 261.3 L686.5 261.0 L720.6 257.5 L754.8 255.9 L788.9 254.6 L823.0 250.9 L857.1 249.3 L891.2 248.8 L925.4 242.5 L959.5 240.7 L993.6 238.1 L1027.8 220.3 L1061.9 201.2 L1096.0 194.8" fill="none" stroke="#56d364" stroke-width="2" stroke-linejoin="round" stroke-linecap="round"/>
<circle cx="1096.0" cy="194.8" r="4" fill="#56d364" stroke="#0d1117" stroke-width="2"/>
<text class="m" x="1096.0" y="180.8" font-size="13" font-weight="600" text-anchor="end" fill="#e6edf3">7.65B tokens</text>
<line x1="4" y1="334.0" x2="1096" y2="334.0" stroke="#30363d" stroke-width="1"/>
<text class="m" x="4.0" y="354" font-size="11" text-anchor="start" fill="#6e7681">Aug 23, 2026</text>
<text class="m" x="550.0" y="354" font-size="11" text-anchor="middle" fill="#6e7681">Sep 8, 2026</text>
<text class="m" x="1096.0" y="354" font-size="11" text-anchor="end" fill="#6e7681">Sep 24, 2026</text>
<text class="m" x="4" y="396" font-size="11" fill="#6e7681">Cumulative tokens, input plus output plus cache. Snapshot 2026-09-24.</text>
</svg>