<svg xmlns="http://www.w3.org/2000/svg" viewBox="0 0 1200 404" width="1200" height="404" role="img" aria-label="Claude Code token meter. 6.14 billion cumulative tokens across 286 sessions, 2026-08-23 to 2026-09-22.">
<defs><linearGradient id="tfill" x1="0" y1="0" x2="0" y2="1">
<stop offset="0" stop-color="#56d364" stop-opacity="0.30"/>
<stop offset="1" stop-color="#56d364" stop-opacity="0.02"/></linearGradient></defs>
<style>
.s{font-family:-apple-system,BlinkMacSystemFont,'Segoe UI',Helvetica,Arial,sans-serif}.m{font-family:ui-monospace,SFMono-Regular,'SF Mono',Menlo,Consolas,monospace}
.trace{stroke-dasharray:1108;stroke-dashoffset:0;animation:dr 1.7s cubic-bezier(.3,.7,.3,1)}
@keyframes dr{from{stroke-dashoffset:1108}}
.wash{opacity:1;animation:wa 1.9s ease-out}
@keyframes wa{from{opacity:0}}
@media (prefers-reduced-motion:reduce){*{animation:none!important}}</style>
<text class="s" x="4" y="52" font-size="26" font-weight="600" letter-spacing="-0.5" fill="#e6edf3">Claude Code token counts</text>
<text class="s" x="4" y="78" font-size="14" fill="#9198a1">Read off the local transcripts, subagent and workflow runs included, one count per API response.</text>
<text class="m" x="4" y="122" font-size="21" font-weight="600" fill="#e6edf3">286</text><text class="m" x="4" y="138" font-size="10.5" letter-spacing="0.9" fill="#6e7681">SESSIONS</text>
<rect x="286" y="100" width="1" height="36" fill="#30363d"/>
<text class="m" x="302" y="122" font-size="21" font-weight="600" fill="#e6edf3">43,908</text><text class="m" x="302" y="138" font-size="10.5" letter-spacing="0.9" fill="#6e7681">ASSISTANT TURNS</text>
<rect x="584" y="100" width="1" height="36" fill="#30363d"/>
<text class="m" x="600" y="122" font-size="21" font-weight="600" fill="#e6edf3">57,507</text><text class="m" x="600" y="138" font-size="10.5" letter-spacing="0.9" fill="#6e7681">TOOL CALLS</text>
<rect x="882" y="100" width="1" height="36" fill="#30363d"/>
<text class="m" x="898" y="122" font-size="21" font-weight="600" fill="#e6edf3">96%</text><text class="m" x="898" y="138" font-size="10.5" letter-spacing="0.9" fill="#6e7681">SERVED FROM CACHE</text>
<line x1="4" y1="334.0" x2="1096" y2="334.0" stroke="#21262d" stroke-width="1"/>
<text class="m" x="1106" y="338.0" font-size="11" fill="#6e7681">0</text>
<line x1="4" y1="288.5" x2="1096" y2="288.5" stroke="#21262d" stroke-width="1"/>
<text class="m" x="1106" y="292.5" font-size="11" fill="#6e7681">2B</text>
<line x1="4" y1="243.0" x2="1096" y2="243.0" stroke="#21262d" stroke-width="1"/>
<text class="m" x="1106" y="247.0" font-size="11" fill="#6e7681">4B</text>
<line x1="4" y1="197.5" x2="1096" y2="197.5" stroke="#21262d" stroke-width="1"/>
<text class="m" x="1106" y="201.5" font-size="11" fill="#6e7681">6B</text>
<line x1="4" y1="152.0" x2="1096" y2="152.0" stroke="#21262d" stroke-width="1"/>
<text class="m" x="1106" y="156.0" font-size="11" fill="#6e7681">8B</text>
<path class="wash" d="M4.0 333.2 L40.4 330.8 L76.8 328.0 L113.2 326.3 L149.6 326.1 L186.0 324.8 L222.4 324.6 L258.8 313.7 L295.2 307.3 L331.6 301.5 L368.0 298.6 L404.4 286.9 L440.8 273.4 L477.2 268.5 L513.6 264.7 L550.0 256.8 L586.4 249.7 L622.8 247.3 L659.2 243.4 L695.6 243.1 L732.0 242.7 L768.4 238.4 L804.8 236.4 L841.2 234.7 L877.6 230.2 L914.0 228.2 L950.4 227.5 L986.8 219.6 L1023.2 217.3 L1059.6 214.1 L1096.0 194.2 L1096.0 334.0 L4 334.0 Z" fill="url(#tfill)"/>
<path class="trace" d="M4.0 333.2 L40.4 330.8 L76.8 328.0 L113.2 326.3 L149.6 326.1 L186.0 324.8 L222.4 324.6 L258.8 313.7 L295.2 307.3 L331.6 301.5 L368.0 298.6 L404.4 286.9 L440.8 273.4 L477.2 268.5 L513.6 264.7 L550.0 256.8 L586.4 249.7 L622.8 247.3 L659.2 243.4 L695.6 243.1 L732.0 242.7 L768.4 238.4 L804.8 236.4 L841.2 234.7 L877.6 230.2 L914.0 228.2 L950.4 227.5 L986.8 219.6 L1023.2 217.3 L1059.6 214.1 L1096.0 194.2" fill="none" stroke="#56d364" stroke-width="2" stroke-linejoin="round" stroke-linecap="round"/>
<circle cx="1096.0" cy="194.2" r="4" fill="#56d364" stroke="#0d1117" stroke-width="2"/>
<text class="m" x="1096.0" y="180.2" font-size="13" font-weight="600" text-anchor="end" fill="#e6edf3">6.14B tokens</text>
<line x1="4" y1="334.0" x2="1096" y2="334.0" stroke="#30363d" stroke-width="1"/>
<text class="m" x="4.0" y="354" font-size="11" text-anchor="start" fill="#6e7681">Aug 23, 2026</text>
<text class="m" x="550.0" y="354" font-size="11" text-anchor="middle" fill="#6e7681">Sep 7, 2026</text>
<text class="m" x="1096.0" y="354" font-size="11" text-anchor="end" fill="#6e7681">Sep 22, 2026</text>
<text class="m" x="4" y="396" font-size="11" fill="#6e7681">Cumulative tokens, input plus output plus cache. Snapshot 2026-09-22.</text>
</svg>