<svg xmlns="http://www.w3.org/2000/svg" viewBox="0 0 1200 404" width="1200" height="404" role="img" aria-label="Claude Code token meter. 8.61 billion cumulative tokens across 329 sessions, 2026-08-23 to 2026-09-26.">
<defs><linearGradient id="tfill" x1="0" y1="0" x2="0" y2="1">
<stop offset="0" stop-color="#106b31" stop-opacity="0.30"/>
<stop offset="1" stop-color="#106b31" stop-opacity="0.02"/></linearGradient></defs>
<style>
.s{font-family:-apple-system,BlinkMacSystemFont,'Segoe UI',Helvetica,Arial,sans-serif}.m{font-family:ui-monospace,SFMono-Regular,'SF Mono',Menlo,Consolas,monospace}
.trace{stroke-dasharray:1114;stroke-dashoffset:0;animation:dr 1.7s cubic-bezier(.3,.7,.3,1)}
@keyframes dr{from{stroke-dashoffset:1114}}
.wash{opacity:1;animation:wa 1.9s ease-out}
@keyframes wa{from{opacity:0}}
@media (prefers-reduced-motion:reduce){*{animation:none!important}}</style>
<text class="s" x="4" y="52" font-size="26" font-weight="600" letter-spacing="-0.5" fill="#1f2328">Claude Code token counts</text>
<text class="s" x="4" y="78" font-size="14" fill="#59636e">Read off the local transcripts, subagent and workflow runs included, one count per API response.</text>
<text class="m" x="4" y="122" font-size="21" font-weight="600" fill="#1f2328">329</text><text class="m" x="4" y="138" font-size="10.5" letter-spacing="0.9" fill="#818b98">SESSIONS</text>
<rect x="286" y="100" width="1" height="36" fill="#d1d9e0"/>
<text class="m" x="302" y="122" font-size="21" font-weight="600" fill="#1f2328">61,030</text><text class="m" x="302" y="138" font-size="10.5" letter-spacing="0.9" fill="#818b98">ASSISTANT TURNS</text>
<rect x="584" y="100" width="1" height="36" fill="#d1d9e0"/>
<text class="m" x="600" y="122" font-size="21" font-weight="600" fill="#1f2328">77,608</text><text class="m" x="600" y="138" font-size="10.5" letter-spacing="0.9" fill="#818b98">TOOL CALLS</text>
<rect x="882" y="100" width="1" height="36" fill="#d1d9e0"/>
<text class="m" x="898" y="122" font-size="21" font-weight="600" fill="#1f2328">96%</text><text class="m" x="898" y="138" font-size="10.5" letter-spacing="0.9" fill="#818b98">SERVED FROM CACHE</text>
<line x1="4" y1="334.0" x2="1096" y2="334.0" stroke="#e6eaef" stroke-width="1"/>
<text class="m" x="1106" y="338.0" font-size="11" fill="#818b98">0</text>
<line x1="4" y1="288.5" x2="1096" y2="288.5" stroke="#e6eaef" stroke-width="1"/>
<text class="m" x="1106" y="292.5" font-size="11" fill="#818b98">2.5B</text>
<line x1="4" y1="243.0" x2="1096" y2="243.0" stroke="#e6eaef" stroke-width="1"/>
<text class="m" x="1106" y="247.0" font-size="11" fill="#818b98">5B</text>
<line x1="4" y1="197.5" x2="1096" y2="197.5" stroke="#e6eaef" stroke-width="1"/>
<text class="m" x="1106" y="201.5" font-size="11" fill="#818b98">7.5B</text>
<line x1="4" y1="152.0" x2="1096" y2="152.0" stroke="#e6eaef" stroke-width="1"/>
<text class="m" x="1106" y="156.0" font-size="11" fill="#818b98">10B</text>
<path class="wash" d="M4.0 333.3 L36.1 331.4 L68.2 329.2 L100.4 327.8 L132.5 327.7 L164.6 326.6 L196.7 326.5 L228.8 317.8 L260.9 312.6 L293.1 308.0 L325.2 305.7 L357.3 296.4 L389.4 285.5 L421.5 281.6 L453.6 278.5 L485.8 272.2 L517.9 266.6 L550.0 264.7 L582.1 261.5 L614.2 261.3 L646.4 261.0 L678.5 257.5 L710.6 255.9 L742.7 254.6 L774.8 250.9 L806.9 249.3 L839.1 248.8 L871.2 242.5 L903.3 240.7 L935.4 238.1 L967.5 220.3 L999.6 201.2 L1031.8 194.6 L1063.9 190.9 L1096.0 177.2 L1096.0 334.0 L4 334.0 Z" fill="url(#tfill)"/>
<path class="trace" d="M4.0 333.3 L36.1 331.4 L68.2 329.2 L100.4 327.8 L132.5 327.7 L164.6 326.6 L196.7 326.5 L228.8 317.8 L260.9 312.6 L293.1 308.0 L325.2 305.7 L357.3 296.4 L389.4 285.5 L421.5 281.6 L453.6 278.5 L485.8 272.2 L517.9 266.6 L550.0 264.7 L582.1 261.5 L614.2 261.3 L646.4 261.0 L678.5 257.5 L710.6 255.9 L742.7 254.6 L774.8 250.9 L806.9 249.3 L839.1 248.8 L871.2 242.5 L903.3 240.7 L935.4 238.1 L967.5 220.3 L999.6 201.2 L1031.8 194.6 L1063.9 190.9 L1096.0 177.2" fill="none" stroke="#106b31" stroke-width="2" stroke-linejoin="round" stroke-linecap="round"/>
<circle cx="1096.0" cy="177.2" r="4" fill="#106b31" stroke="#ffffff" stroke-width="2"/>
<text class="m" x="1096.0" y="163.2" font-size="13" font-weight="600" text-anchor="end" fill="#1f2328">8.61B tokens</text>
<line x1="4" y1="334.0" x2="1096" y2="334.0" stroke="#d1d9e0" stroke-width="1"/>
<text class="m" x="4.0" y="354" font-size="11" text-anchor="start" fill="#818b98">Aug 23, 2026</text>
<text class="m" x="550.0" y="354" font-size="11" text-anchor="middle" fill="#818b98">Sep 9, 2026</text>
<text class="m" x="1096.0" y="354" font-size="11" text-anchor="end" fill="#818b98">Sep 26, 2026</text>
<text class="m" x="4" y="396" font-size="11" fill="#818b98">Cumulative tokens, input plus output plus cache. Snapshot 2026-09-26.</text>
</svg>