<svg xmlns="http://www.w3.org/2000/svg" viewBox="0 0 1200 404" width="1200" height="404" role="img" aria-label="Claude Code token meter. 13.01 billion cumulative tokens across 470 sessions, 2026-08-23 to 2026-10-08.">
<defs><linearGradient id="tfill" x1="0" y1="0" x2="0" y2="1">
<stop offset="0" stop-color="#56d364" stop-opacity="0.30"/>
<stop offset="1" stop-color="#56d364" stop-opacity="0.02"/></linearGradient></defs>
<style>
.s{font-family:-apple-system,BlinkMacSystemFont,'Segoe UI',Helvetica,Arial,sans-serif}.m{font-family:ui-monospace,SFMono-Regular,'SF Mono',Menlo,Consolas,monospace}
.trace{stroke-dasharray:1104;stroke-dashoffset:0;animation:dr 1.7s cubic-bezier(.3,.7,.3,1)}
@keyframes dr{from{stroke-dashoffset:1104}}
.wash{opacity:1;animation:wa 1.9s ease-out}
@keyframes wa{from{opacity:0}}
@media (prefers-reduced-motion:reduce){*{animation:none!important}}</style>
<text class="s" x="4" y="52" font-size="26" font-weight="600" letter-spacing="-0.5" fill="#e6edf3">Claude Code token counts</text>
<text class="s" x="4" y="78" font-size="14" fill="#9198a1">Read off the local transcripts, subagent and workflow runs included, one count per API response.</text>
<text class="m" x="4" y="122" font-size="21" font-weight="600" fill="#e6edf3">470</text><text class="m" x="4" y="138" font-size="10.5" letter-spacing="0.9" fill="#6e7681">SESSIONS</text>
<rect x="286" y="100" width="1" height="36" fill="#30363d"/>
<text class="m" x="302" y="122" font-size="21" font-weight="600" fill="#e6edf3">84,215</text><text class="m" x="302" y="138" font-size="10.5" letter-spacing="0.9" fill="#6e7681">ASSISTANT TURNS</text>
<rect x="584" y="100" width="1" height="36" fill="#30363d"/>
<text class="m" x="600" y="122" font-size="21" font-weight="600" fill="#e6edf3">108,375</text><text class="m" x="600" y="138" font-size="10.5" letter-spacing="0.9" fill="#6e7681">TOOL CALLS</text>
<rect x="882" y="100" width="1" height="36" fill="#30363d"/>
<text class="m" x="898" y="122" font-size="21" font-weight="600" fill="#e6edf3">96%</text><text class="m" x="898" y="138" font-size="10.5" letter-spacing="0.9" fill="#6e7681">SERVED FROM CACHE</text>
<line x1="4" y1="334.0" x2="1096" y2="334.0" stroke="#21262d" stroke-width="1"/>
<text class="m" x="1106" y="338.0" font-size="11" fill="#6e7681">0</text>
<line x1="4" y1="288.5" x2="1096" y2="288.5" stroke="#21262d" stroke-width="1"/>
<text class="m" x="1106" y="292.5" font-size="11" fill="#6e7681">5B</text>
<line x1="4" y1="243.0" x2="1096" y2="243.0" stroke="#21262d" stroke-width="1"/>
<text class="m" x="1106" y="247.0" font-size="11" fill="#6e7681">10B</text>
<line x1="4" y1="197.5" x2="1096" y2="197.5" stroke="#21262d" stroke-width="1"/>
<text class="m" x="1106" y="201.5" font-size="11" fill="#6e7681">15B</text>
<line x1="4" y1="152.0" x2="1096" y2="152.0" stroke="#21262d" stroke-width="1"/>
<text class="m" x="1106" y="156.0" font-size="11" fill="#6e7681">20B</text>
<path class="wash" d="M4.0 333.7 L27.7 332.7 L51.5 331.6 L75.2 330.9 L99.0 330.8 L122.7 330.3 L146.4 330.3 L170.2 325.9 L193.9 323.3 L217.7 321.0 L241.4 319.9 L265.1 315.2 L288.9 309.8 L312.6 307.8 L336.3 306.3 L360.1 303.1 L383.8 300.3 L407.6 299.3 L431.3 297.8 L455.0 297.7 L478.8 297.5 L502.5 295.8 L526.3 295.0 L550.0 294.3 L573.7 292.5 L597.5 291.7 L621.2 291.4 L645.0 288.2 L668.7 287.3 L692.4 286.1 L716.2 277.1 L739.9 267.6 L763.7 264.3 L787.4 262.5 L811.1 255.6 L834.9 254.9 L858.6 254.9 L882.3 251.9 L906.1 251.6 L929.8 247.0 L953.6 244.3 L977.3 242.4 L1001.0 235.6 L1024.8 230.8 L1048.5 225.0 L1072.3 223.0 L1096.0 215.6 L1096.0 334.0 L4 334.0 Z" fill="url(#tfill)"/>
<path class="trace" d="M4.0 333.7 L27.7 332.7 L51.5 331.6 L75.2 330.9 L99.0 330.8 L122.7 330.3 L146.4 330.3 L170.2 325.9 L193.9 323.3 L217.7 321.0 L241.4 319.9 L265.1 315.2 L288.9 309.8 L312.6 307.8 L336.3 306.3 L360.1 303.1 L383.8 300.3 L407.6 299.3 L431.3 297.8 L455.0 297.7 L478.8 297.5 L502.5 295.8 L526.3 295.0 L550.0 294.3 L573.7 292.5 L597.5 291.7 L621.2 291.4 L645.0 288.2 L668.7 287.3 L692.4 286.1 L716.2 277.1 L739.9 267.6 L763.7 264.3 L787.4 262.5 L811.1 255.6 L834.9 254.9 L858.6 254.9 L882.3 251.9 L906.1 251.6 L929.8 247.0 L953.6 244.3 L977.3 242.4 L1001.0 235.6 L1024.8 230.8 L1048.5 225.0 L1072.3 223.0 L1096.0 215.6" fill="none" stroke="#56d364" stroke-width="2" stroke-linejoin="round" stroke-linecap="round"/>
<circle cx="1096.0" cy="215.6" r="4" fill="#56d364" stroke="#0d1117" stroke-width="2"/>
<text class="m" x="1096.0" y="201.6" font-size="13" font-weight="600" text-anchor="end" fill="#e6edf3">13.01B tokens</text>
<line x1="4" y1="334.0" x2="1096" y2="334.0" stroke="#30363d" stroke-width="1"/>
<text class="m" x="4.0" y="354" font-size="11" text-anchor="start" fill="#6e7681">Aug 23, 2026</text>
<text class="m" x="550.0" y="354" font-size="11" text-anchor="middle" fill="#6e7681">Sep 15, 2026</text>
<text class="m" x="1096.0" y="354" font-size="11" text-anchor="end" fill="#6e7681">Oct 8, 2026</text>
<text class="m" x="4" y="396" font-size="11" fill="#6e7681">Cumulative tokens, input plus output plus cache. Snapshot 2026-10-08.</text>
</svg>