<svg xmlns="http://www.w3.org/2000/svg" viewBox="0 0 1200 404" width="1200" height="404" role="img" aria-label="Claude Code token meter. 9.05 billion cumulative tokens across 361 sessions, 2026-08-23 to 2026-09-30.">
<defs><linearGradient id="tfill" x1="0" y1="0" x2="0" y2="1">
<stop offset="0" stop-color="#106b31" stop-opacity="0.30"/>
<stop offset="1" stop-color="#106b31" stop-opacity="0.02"/></linearGradient></defs>
<style>
.s{font-family:-apple-system,BlinkMacSystemFont,'Segoe UI',Helvetica,Arial,sans-serif}.m{font-family:ui-monospace,SFMono-Regular,'SF Mono',Menlo,Consolas,monospace}
.trace{stroke-dasharray:1098;stroke-dashoffset:0;animation:dr 1.7s cubic-bezier(.3,.7,.3,1)}
@keyframes dr{from{stroke-dashoffset:1098}}
.wash{opacity:1;animation:wa 1.9s ease-out}
@keyframes wa{from{opacity:0}}
@media (prefers-reduced-motion:reduce){*{animation:none!important}}</style>
<text class="s" x="4" y="52" font-size="26" font-weight="600" letter-spacing="-0.5" fill="#1f2328">Claude Code token counts</text>
<text class="s" x="4" y="78" font-size="14" fill="#59636e">Read off the local transcripts, subagent and workflow runs included, one count per API response.</text>
<text class="m" x="4" y="122" font-size="21" font-weight="600" fill="#1f2328">361</text><text class="m" x="4" y="138" font-size="10.5" letter-spacing="0.9" fill="#818b98">SESSIONS</text>
<rect x="286" y="100" width="1" height="36" fill="#d1d9e0"/>
<text class="m" x="302" y="122" font-size="21" font-weight="600" fill="#1f2328">64,006</text><text class="m" x="302" y="138" font-size="10.5" letter-spacing="0.9" fill="#818b98">ASSISTANT TURNS</text>
<rect x="584" y="100" width="1" height="36" fill="#d1d9e0"/>
<text class="m" x="600" y="122" font-size="21" font-weight="600" fill="#1f2328">81,589</text><text class="m" x="600" y="138" font-size="10.5" letter-spacing="0.9" fill="#818b98">TOOL CALLS</text>
<rect x="882" y="100" width="1" height="36" fill="#d1d9e0"/>
<text class="m" x="898" y="122" font-size="21" font-weight="600" fill="#1f2328">96%</text><text class="m" x="898" y="138" font-size="10.5" letter-spacing="0.9" fill="#818b98">SERVED FROM CACHE</text>
<line x1="4" y1="334.0" x2="1096" y2="334.0" stroke="#e6eaef" stroke-width="1"/>
<text class="m" x="1106" y="338.0" font-size="11" fill="#818b98">0</text>
<line x1="4" y1="288.5" x2="1096" y2="288.5" stroke="#e6eaef" stroke-width="1"/>
<text class="m" x="1106" y="292.5" font-size="11" fill="#818b98">5B</text>
<line x1="4" y1="243.0" x2="1096" y2="243.0" stroke="#e6eaef" stroke-width="1"/>
<text class="m" x="1106" y="247.0" font-size="11" fill="#818b98">10B</text>
<line x1="4" y1="197.5" x2="1096" y2="197.5" stroke="#e6eaef" stroke-width="1"/>
<text class="m" x="1106" y="201.5" font-size="11" fill="#818b98">15B</text>
<line x1="4" y1="152.0" x2="1096" y2="152.0" stroke="#e6eaef" stroke-width="1"/>
<text class="m" x="1106" y="156.0" font-size="11" fill="#818b98">20B</text>
<path class="wash" d="M4.0 333.7 L32.7 332.7 L61.5 331.6 L90.2 330.9 L118.9 330.8 L147.7 330.3 L176.4 330.3 L205.2 325.9 L233.9 323.3 L262.6 321.0 L291.4 319.9 L320.1 315.2 L348.8 309.8 L377.6 307.8 L406.3 306.3 L435.1 303.1 L463.8 300.3 L492.5 299.3 L521.3 297.8 L550.0 297.7 L578.7 297.5 L607.5 295.8 L636.2 295.0 L664.9 294.3 L693.7 292.5 L722.4 291.7 L751.2 291.4 L779.9 288.2 L808.6 287.3 L837.4 286.1 L866.1 277.1 L894.8 267.6 L923.6 264.3 L952.3 262.5 L981.1 255.6 L1009.8 254.9 L1038.5 254.9 L1067.3 251.9 L1096.0 251.6 L1096.0 334.0 L4 334.0 Z" fill="url(#tfill)"/>
<path class="trace" d="M4.0 333.7 L32.7 332.7 L61.5 331.6 L90.2 330.9 L118.9 330.8 L147.7 330.3 L176.4 330.3 L205.2 325.9 L233.9 323.3 L262.6 321.0 L291.4 319.9 L320.1 315.2 L348.8 309.8 L377.6 307.8 L406.3 306.3 L435.1 303.1 L463.8 300.3 L492.5 299.3 L521.3 297.8 L550.0 297.7 L578.7 297.5 L607.5 295.8 L636.2 295.0 L664.9 294.3 L693.7 292.5 L722.4 291.7 L751.2 291.4 L779.9 288.2 L808.6 287.3 L837.4 286.1 L866.1 277.1 L894.8 267.6 L923.6 264.3 L952.3 262.5 L981.1 255.6 L1009.8 254.9 L1038.5 254.9 L1067.3 251.9 L1096.0 251.6" fill="none" stroke="#106b31" stroke-width="2" stroke-linejoin="round" stroke-linecap="round"/>
<circle cx="1096.0" cy="251.6" r="4" fill="#106b31" stroke="#ffffff" stroke-width="2"/>
<text class="m" x="1096.0" y="237.6" font-size="13" font-weight="600" text-anchor="end" fill="#1f2328">9.05B tokens</text>
<line x1="4" y1="334.0" x2="1096" y2="334.0" stroke="#d1d9e0" stroke-width="1"/>
<text class="m" x="4.0" y="354" font-size="11" text-anchor="start" fill="#818b98">Aug 23, 2026</text>
<text class="m" x="550.0" y="354" font-size="11" text-anchor="middle" fill="#818b98">Sep 11, 2026</text>
<text class="m" x="1096.0" y="354" font-size="11" text-anchor="end" fill="#818b98">Sep 30, 2026</text>
<text class="m" x="4" y="396" font-size="11" fill="#818b98">Cumulative tokens, input plus output plus cache. Snapshot 2026-09-30.</text>
</svg>